<?xml version="1.0" standalone="no"?><!DOCTYPE svg PUBLIC "-//W3C//DTD SVG 1.1//EN" "http://www.w3.org/Graphics/SVG/1.1/DTD/svg11.dtd"><svg t="1513108777659" class="icon" style="" viewBox="0 0 1024 1024" version="1.1" xmlns="http://www.w3.org/2000/svg" p-id="1404" xmlns:xlink="http://www.w3.org/1999/xlink" width="200" height="200"><defs><style type="text/css"></style></defs><path d="M787.2 485.12l-21.76 58.88h-58.88l47.36 37.12-21.76 65.28 55.04-39.68 55.04 39.68-23.04-66.56 47.36-37.12h-58.88l-20.48-57.6zM947.2 144.64h-80.64L837.12 64 806.4 144.64h-80.64l65.28 49.92-30.72 90.88 75.52-55.04 75.52 55.04-30.72-90.88 66.56-49.92zM531.2 445.44l55.04-39.68 55.04 39.68-21.76-65.28 47.36-37.12h-58.88l-21.76-58.88-21.76 58.88h-58.88l47.36 37.12-21.76 65.28z m-166.4-101.12c0-106.24 37.12-203.52 99.84-279.04C239.36 84.48 64 273.92 64 504.32 64 748.8 261.12 947.2 505.6 947.2c138.24 0 280.32-64 360.96-162.56-14.08 1.28-46.08 2.56-60.16 2.56-243.2-1.28-441.6-199.68-441.6-442.88z m140.8 563.2c-221.44 0-401.92-180.48-401.92-401.92 0-177.92 112.64-328.96 273.92-381.44-34.56 67.84-53.76 143.36-53.76 221.44 0 252.16 193.28 459.52 439.04 481.28-70.4 49.92-165.12 80.64-257.28 80.64z" fill="#2c2c2c" p-id="1405"></path></svg>